<svg width="403" height="65" viewBox="0 0 403 65" fill="none" xmlns="http://www.w3.org/2000/svg">
<g filter="url(#filter0_d)">
<path d="M69 45V56" stroke="#616161" stroke-linecap="round"/>
</g>
<g filter="url(#filter1_d)">
<path d="M59 56H69" stroke="#616161" stroke-linecap="round"/>
</g>
<g filter="url(#filter2_d)">
<path d="M4.5 11V56H5.5V11H4.5ZM15 1.5H66V0.5H15V1.5ZM5.5 11C5.5 5.7533 9.75329 1.5 15 1.5V0.5C9.20101 0.5 4.5 5.20101 4.5 11H5.5Z" fill="#616161"/>
</g>
<path d="M12 21H36" stroke="#616161"/>
<path d="M36 21H66" stroke="#00C8B3"/>
<path d="M42 33H66" stroke="#616161"/>
<path d="M12 33H42" stroke="#00C8B3"/>
<path d="M22 44H52" stroke="#00C8B3"/>
<path d="M129.14 30.7397C125.521 29.6997 122.885 28.4253 121.229 26.9165C119.589 25.3931 118.769 23.5181 118.769 21.2915C118.769 18.772 119.772 16.6919 121.779 15.0513C123.8 13.396 126.422 12.5684 129.645 12.5684C131.842 12.5684 133.798 12.9932 135.512 13.8428C137.24 14.6924 138.573 15.8643 139.511 17.3584C140.463 18.8525 140.939 20.4858 140.939 22.2583H136.698C136.698 20.3247 136.083 18.8086 134.853 17.71C133.622 16.5967 131.886 16.04 129.645 16.04C127.565 16.04 125.939 16.5015 124.767 17.4243C123.61 18.3325 123.031 19.5996 123.031 21.2256C123.031 22.5293 123.581 23.6353 124.679 24.5435C125.792 25.437 127.675 26.2573 130.326 27.0044C132.992 27.7515 135.072 28.5791 136.566 29.4873C138.075 30.3809 139.188 31.4282 139.906 32.6294C140.639 33.8306 141.005 35.2441 141.005 36.8701C141.005 39.4629 139.994 41.543 137.973 43.1104C135.951 44.6631 133.249 45.4395 129.865 45.4395C127.667 45.4395 125.617 45.022 123.712 44.187C121.808 43.3374 120.336 42.1802 119.296 40.7153C118.271 39.2505 117.758 37.5879 117.758 35.7275H121.999C121.999 37.6611 122.709 39.1919 124.13 40.3198C125.565 41.4331 127.477 41.9897 129.865 41.9897C132.091 41.9897 133.798 41.5356 134.984 40.6274C136.171 39.7192 136.764 38.4814 136.764 36.9141C136.764 35.3467 136.215 34.1382 135.116 33.2886C134.018 32.4243 132.025 31.5747 129.14 30.7397ZM150.211 45H146.146V21.2256H150.211V45ZM145.817 14.9194C145.817 14.2603 146.015 13.7036 146.41 13.2495C146.82 12.7954 147.421 12.5684 148.212 12.5684C149.003 12.5684 149.604 12.7954 150.014 13.2495C150.424 13.7036 150.629 14.2603 150.629 14.9194C150.629 15.5786 150.424 16.1279 150.014 16.5674C149.604 17.0068 149.003 17.2266 148.212 17.2266C147.421 17.2266 146.82 17.0068 146.41 16.5674C146.015 16.1279 145.817 15.5786 145.817 14.9194ZM160.561 21.2256L160.67 23.8623C162.414 21.8115 164.765 20.7861 167.724 20.7861C171.049 20.7861 173.312 22.0605 174.513 24.6094C175.304 23.4668 176.33 22.5439 177.589 21.8408C178.864 21.1377 180.365 20.7861 182.094 20.7861C187.309 20.7861 189.96 23.5474 190.048 29.0698V45H185.983V29.3115C185.983 27.6123 185.595 26.3452 184.818 25.5103C184.042 24.6606 182.738 24.2358 180.907 24.2358C179.398 24.2358 178.146 24.6899 177.15 25.5981C176.154 26.4917 175.575 27.7002 175.414 29.2236V45H171.327V29.4214C171.327 25.9644 169.635 24.2358 166.251 24.2358C163.585 24.2358 161.762 25.3711 160.78 27.6416V45H156.715V21.2256H160.561ZM216.283 33.3765C216.283 36.9946 215.456 39.9097 213.8 42.1216C212.145 44.3335 209.904 45.4395 207.077 45.4395C204.191 45.4395 201.92 44.5239 200.265 42.6929V54.1406H196.2V21.2256H199.914L200.111 23.8623C201.767 21.8115 204.066 20.7861 207.011 20.7861C209.867 20.7861 212.123 21.8628 213.778 24.0161C215.448 26.1694 216.283 29.165 216.283 33.0029V33.3765ZM212.218 32.915C212.218 30.2344 211.647 28.1177 210.504 26.5649C209.362 25.0122 207.794 24.2358 205.802 24.2358C203.341 24.2358 201.496 25.3271 200.265 27.5098V38.8696C201.481 41.0376 203.341 42.1216 205.846 42.1216C207.794 42.1216 209.34 41.3525 210.482 39.8145C211.64 38.2617 212.218 35.9619 212.218 32.915ZM225.885 45H221.82V11.25H225.885V45ZM242.277 45.4395C239.054 45.4395 236.432 44.3848 234.411 42.2754C232.389 40.1514 231.378 37.3169 231.378 33.772V33.0249C231.378 30.6665 231.825 28.5645 232.719 26.7188C233.627 24.8584 234.887 23.4082 236.498 22.3682C238.124 21.3135 239.882 20.7861 241.771 20.7861C244.862 20.7861 247.265 21.8042 248.979 23.8403C250.692 25.8765 251.549 28.7915 251.549 32.5854V34.2773H235.443C235.502 36.6211 236.183 38.5181 237.487 39.9683C238.805 41.4038 240.475 42.1216 242.497 42.1216C243.932 42.1216 245.148 41.8286 246.144 41.2427C247.14 40.6567 248.012 39.8804 248.759 38.9136L251.242 40.8472C249.25 43.9087 246.261 45.4395 242.277 45.4395ZM241.771 24.126C240.131 24.126 238.754 24.7266 237.641 25.9277C236.527 27.1143 235.839 28.7842 235.575 30.9375H247.484V30.6299C247.367 28.5645 246.811 26.9678 245.814 25.8398C244.818 24.6973 243.471 24.126 241.771 24.126ZM285.717 30.8716H272.292V45H268.073V13.0078H287.892V16.4795H272.292V27.4219H285.717V30.8716ZM290.749 32.8931C290.749 30.564 291.203 28.4692 292.111 26.6089C293.034 24.7485 294.308 23.313 295.934 22.3022C297.575 21.2915 299.442 20.7861 301.537 20.7861C304.774 20.7861 307.389 21.9067 309.381 24.1479C311.388 26.3892 312.392 29.3701 312.392 33.0908V33.3765C312.392 35.6909 311.945 37.771 311.051 39.6167C310.172 41.4478 308.905 42.876 307.25 43.9014C305.609 44.9268 303.72 45.4395 301.581 45.4395C298.358 45.4395 295.744 44.3188 293.737 42.0776C291.745 39.8364 290.749 36.8701 290.749 33.1787V32.8931ZM294.835 33.3765C294.835 36.0132 295.443 38.1299 296.659 39.7266C297.89 41.3232 299.53 42.1216 301.581 42.1216C303.646 42.1216 305.287 41.3159 306.503 39.7046C307.719 38.0786 308.327 35.8081 308.327 32.8931C308.327 30.2856 307.704 28.1763 306.459 26.5649C305.229 24.939 303.588 24.126 301.537 24.126C299.53 24.126 297.912 24.9243 296.681 26.521C295.451 28.1177 294.835 30.4028 294.835 33.3765ZM328.981 24.873C328.366 24.7705 327.699 24.7192 326.981 24.7192C324.315 24.7192 322.506 25.8545 321.554 28.125V45H317.489V21.2256H321.444L321.51 23.9722C322.843 21.8481 324.733 20.7861 327.179 20.7861C327.97 20.7861 328.571 20.8887 328.981 21.0938V24.873ZM336.562 21.2256L336.671 23.8623C338.415 21.8115 340.766 20.7861 343.725 20.7861C347.05 20.7861 349.313 22.0605 350.514 24.6094C351.305 23.4668 352.331 22.5439 353.59 21.8408C354.865 21.1377 356.366 20.7861 358.095 20.7861C363.31 20.7861 365.961 23.5474 366.049 29.0698V45H361.984V29.3115C361.984 27.6123 361.596 26.3452 360.819 25.5103C360.043 24.6606 358.739 24.2358 356.908 24.2358C355.399 24.2358 354.147 24.6899 353.151 25.5981C352.155 26.4917 351.576 27.7002 351.415 29.2236V45H347.328V29.4214C347.328 25.9644 345.636 24.2358 342.252 24.2358C339.586 24.2358 337.763 25.3711 336.781 27.6416V45H332.716V21.2256H336.562Z" fill="#707070"/>
<defs>
<filter id="filter0_d" x="64.5" y="44.5" width="9" height="20" filterUnits="userSpaceOnUse" color-interpolation-filters="sRGB">
<feFlood flood-opacity="0" result="BackgroundImageFix"/>
<feColorMatrix in="SourceAlpha" type="matrix" values="0 0 0 0 0 0 0 0 0 0 0 0 0 0 0 0 0 0 127 0" result="hardAlpha"/>
<feOffset dy="4"/>
<feGaussianBlur stdDeviation="2"/>
<feComposite in2="hardAlpha" operator="out"/>
<feColorMatrix type="matrix" values="0 0 0 0 0 0 0 0 0 0 0 0 0 0 0 0 0 0 0.25 0"/>
<feBlend mode="normal" in2="BackgroundImageFix" result="effect1_dropShadow"/>
<feBlend mode="normal" in="SourceGraphic" in2="effect1_dropShadow" result="shape"/>
</filter>
<filter id="filter1_d" x="54.5" y="55.5" width="19" height="9" filterUnits="userSpaceOnUse" color-interpolation-filters="sRGB">
<feFlood flood-opacity="0" result="BackgroundImageFix"/>
<feColorMatrix in="SourceAlpha" type="matrix" values="0 0 0 0 0 0 0 0 0 0 0 0 0 0 0 0 0 0 127 0" result="hardAlpha"/>
<feOffset dy="4"/>
<feGaussianBlur stdDeviation="2"/>
<feComposite in2="hardAlpha" operator="out"/>
<feColorMatrix type="matrix" values="0 0 0 0 0 0 0 0 0 0 0 0 0 0 0 0 0 0 0.25 0"/>
<feBlend mode="normal" in2="BackgroundImageFix" result="effect1_dropShadow"/>
<feBlend mode="normal" in="SourceGraphic" in2="effect1_dropShadow" result="shape"/>
</filter>
<filter id="filter2_d" x="0.5" y="0.5" width="69.5" height="63.5" filterUnits="userSpaceOnUse" color-interpolation-filters="sRGB">
<feFlood flood-opacity="0" result="BackgroundImageFix"/>
<feColorMatrix in="SourceAlpha" type="matrix" values="0 0 0 0 0 0 0 0 0 0 0 0 0 0 0 0 0 0 127 0" result="hardAlpha"/>
<feOffset dy="4"/>
<feGaussianBlur stdDeviation="2"/>
<feComposite in2="hardAlpha" operator="out"/>
<feColorMatrix type="matrix" values="0 0 0 0 0 0 0 0 0 0 0 0 0 0 0 0 0 0 0.25 0"/>
<feBlend mode="normal" in2="BackgroundImageFix" result="effect1_dropShadow"/>
<feBlend mode="normal" in="SourceGraphic" in2="effect1_dropShadow" result="shape"/>
</filter>
</defs>
</svg>
